<svg xmlns="http://www.w3.org/2000/svg" width="128" height="128" viewBox="0 0 48 48">
<g transform="translate(0 -1004.362)">
<circle cx="24" cy="1028.362" r="24" fill="#e3324c" fill-rule="evenodd"/>
<g transform="translate(272 -302.633)">
<path fill="#fcd062" stroke="#f8b84e" stroke-dashoffset=".35" stroke-linecap="round" stroke-linejoin="round" stroke-width=".5" d="m -249.16778,1330.8114 c 0.27808,-0.4816 0.90811,-0.6348 1.41283,-0.3434 l 0.14263,0.091 1.89469,1.0939 c 0.76263,0.4403 1.76614,0.1194 2.25039,-0.7194 l -1.62268,-0.9398 -2.41248,-1.3929 -0.37726,-0.2198 c -1.59981,-0.9237 -3.63457,-0.3734 -4.56243,1.2337 l -1.02653,1.778"/>
<rect width="5" height="4" x="-1281.228" y="-447.387" fill="#fcd062" stroke="#f8b84e" stroke-dashoffset=".35" stroke-linecap="round" stroke-linejoin="round" stroke-width=".5" transform="scale(1 -1) rotate(60)"/><rect width="5" height="4" x="-1033.744" y="-876.041" fill="#fcd062" stroke="#f8b84e" stroke-dashoffset=".35" stroke-linecap="round" stroke-linejoin="round" stroke-width=".5" transform="rotate(-120)"/><path fill="#fcd062" stroke="#f8b84e" stroke-dashoffset=".35" stroke-linecap="round" stroke-linejoin="round" stroke-width=".5" d="m -247.61232,1330.5595 1.89469,1.0939 c 0.76263,0.4403 1.76614,0.1194 2.25039,-0.7194 l -1.62268,-0.9398 -2.41248,-1.3929"/><path fill="#fcd062" stroke="#f8b84e" stroke-dashoffset=".35" stroke-linecap="round" stroke-linejoin="round" stroke-width=".5" d="m -249.16778,1330.8114 c 0.27808,-0.4816 0.90811,-0.6348 1.41283,-0.3434 l 1.92855,1.1134"/><path fill="#fcd062" stroke="#f8b84e" stroke-dashoffset=".35" stroke-linecap="round" stroke-linejoin="round" stroke-width=".5" d="m -248.69093,1329.3066 1.60328,-0.9256 c 1.5998,-0.9237 3.63456,-0.3734 4.56243,1.2337 l 1.02653,1.778 c 0.92786,1.6071 0.38706,3.6444 -1.21275,4.5681 l -1.60328,0.9256 0.25866,-0.1492 -4.54664,2.625 c -0.41985,0.2424 -0.9529,0.1 -1.19527,-0.3202 -0.24238,-0.4198 -0.0996,-0.9529 0.32027,-1.1953 l 4.54664,-2.625 -0.86638,0.5002 -4.54663,2.625 c -0.41985,0.2424 -0.9529,0.1 -1.19527,-0.3203 -0.24238,-0.4198 -0.0996,-0.9529 0.32027,-1.1953 l 4.54663,-2.625 -0.43266,0.2498 -4.54664,2.625 c -0.41985,0.2424 -0.95289,0.1 -1.19527,-0.3202 -0.24237,-0.4198 -0.0996,-0.9529 0.32027,-1.1953 l 4.54664,-2.625 0.43266,-0.2498 -4.54663,2.625 c -0.41985,0.2424 -0.9529,0.099 -1.19527,-0.3203 -0.24238,-0.4198 -0.0996,-0.9528 0.32027,-1.1952 l 4.54663,-2.625"/><rect width="8" height="3" x="-1036.088" y="-872.791" fill="#406b95" stroke="#496078" stroke-dashoffset=".35" stroke-linecap="round" stroke-linejoin="round" stroke-width=".5" transform="rotate(-120)"/><circle cx="-1034.588" cy="-871.291" r=".5" fill="#e6dfd2" transform="rotate(-120)"/><rect width="8" height="3" x="-1283.571" y="-444.137" fill="#406b95" stroke="#496078" stroke-dashoffset=".35" stroke-linecap="round" stroke-linejoin="round" stroke-width=".5" transform="scale(1 -1) rotate(60)"/><circle cx="-1282.071" cy="-442.637" r=".5" fill="#e6dfd2" transform="scale(1 -1) rotate(60)"/><path fill="#fcd062" stroke="#f8b84e" stroke-dashoffset=".35" stroke-linecap="round" stroke-linejoin="round" stroke-width=".5" d="m -247.355,1330.5595 -1.89469,1.0939 c -0.76262,0.4403 -1.76613,0.1194 -2.25038,-0.7194 l 1.62267,-0.9398 2.41249,-1.3929"/><path fill="#fcd062" stroke="#f8b84e" stroke-dashoffset=".35" stroke-linecap="round" stroke-linejoin="round" stroke-width=".5" d="m -245.79954,1330.8114 c -0.27807,-0.4816 -0.9081,-0.6348 -1.41282,-0.3434 l -1.92855,1.1134"/><path fill="#fcd062" stroke="#f8b84e" stroke-dashoffset=".35" stroke-linecap="round" stroke-linejoin="round" stroke-width=".5" d="m -245.07654,1330.0063 -1.49857,-0.9163 -1.30455,-0.709 c -1.62311,-0.8821 -3.63457,-0.3734 -4.56243,1.2337 l -1.02653,1.778 c -0.92786,1.6071 -0.38706,3.6444 1.21275,4.5681 l 1.60327,0.9256 -0.25865,-0.1492 4.54663,2.625 c 0.41985,0.2424 0.9529,0.1 1.19528,-0.3202 0.24237,-0.4198 0.0996,-0.9529 -0.32028,-1.1953 l -4.54663,-2.625 0.86637,0.5002 4.54664,2.625 c 0.41984,0.2424 0.95289,0.1 1.19527,-0.3203 0.24237,-0.4198 0.0996,-0.9529 -0.32027,-1.1953 l -4.54664,-2.625 0.43267,0.2498 4.54663,2.625 c 0.41985,0.2424 0.9529,0.1 1.19527,-0.3202 0.24238,-0.4198 0.0996,-0.9529 -0.32027,-1.1953 l -4.54663,-2.625 -0.43267,-0.2498 4.54664,2.625 c 0.41984,0.2424 0.95289,0.099 1.19527,-0.3203 0.24237,-0.4198 0.0996,-0.9528 -0.32027,-1.1952 l -4.14049,-2.3905"/><path fill="#fcd062" stroke="#f8b84e" stroke-dashoffset=".35" stroke-linecap="round" stroke-linejoin="round" stroke-width=".5" d="M-245.79954 1330.8114c-.27807-.4816-.9081-.6348-1.41282-.3434l-.14264.091-1.89469 1.0939c-.76262.4403-1.76613.1194-2.25038-.7194l1.62267-.9398 2.41249-1.3929.37726-.2198c1.5998-.9237 3.63456-.3734 4.56243 1.2337l1.02653 1.778M-245.78992 1330.8299c.14884.2578.16579.5558.072.8218"/></g></g></svg>