<svg xmlns="http://www.w3.org/2000/svg" id="Layer_1" viewBox="0 0 48 48">
<path fill="#e3324c" fill-rule="evenodd" d="M48 24c0 13.283-10.762 24.045-24 24.045C10.717 48.045 0 37.283 0 24 0 10.762 10.717 0 24 0c13.238 0 24 10.762 24 24z" clip-rule="evenodd"/>
<path fill="#fff" d="M35.5 36h-23a2.503 2.503 0 0 1-2.5-2.5v-15c0-1.378 1.122-2.5 2.5-2.5h23c1.378 0 2.5 1.122 2.5 2.5v15c0 1.378-1.122 2.5-2.5 2.5zm-23-19c-.827 0-1.5.673-1.5 1.5v15c0 .827.673 1.5 1.5 1.5h23c.827 0 1.5-.673 1.5-1.5v-15c0-.827-.673-1.5-1.5-1.5h-23z"/>
<path fill="#fff" d="M26 30h-4a.5.5 0 0 1-.5-.5v-5a.5.5 0 0 1 .5-.5h4a.5.5 0 0 1 .5.5v5a.5.5 0 0 1-.5.5zm-3.5-1h3v-4h-3v4zM30 17H18a.5.5 0 0 1-.485-.621l.621-2.485A2.497 2.497 0 0 1 20.562 12h6.877c1.149 0 2.147.779 2.425 1.894l.621 2.485A.497.497 0 0 1 30 17zm-11.36-1h10.72l-.466-1.864A1.498 1.498 0 0 0 27.438 13h-6.877a1.5 1.5 0 0 0-1.456 1.136L18.64 16z"/>
<path fill="#fff" d="M26 26.407a.501.501 0 0 1-.5-.5V25h-3v.907a.5.5 0 0 1-.642.48l-11.5-3.407A.502.502 0 0 1 10 22.5v-4c0-1.378 1.122-2.5 2.5-2.5h23c1.378 0 2.5 1.122 2.5 2.5v4a.5.5 0 0 1-.358.479l-11.5 3.407a.498.498 0 0 1-.142.021zM22 24h4a.5.5 0 0 1 .5.5v.738L37 22.126V18.5c0-.827-.673-1.5-1.5-1.5h-23c-.827 0-1.5.673-1.5 1.5v3.626l10.5 3.111V24.5a.5.5 0 0 1 .5-.5zm15.5-1.5h.01-.01zM24 30a.5.5 0 0 1-.5-.5v-1a.5.5 0 0 1 1 0v1a.5.5 0 0 1-.5.5z"/>
<path fill="#fff" d="M26 27h-4a.5.5 0 0 1 0-1h4a.5.5 0 0 1 0 1z"/></svg>