<svg xmlns="http://www.w3.org/2000/svg" id="Layer_1" viewBox="0 0 48 48"><path fill="#e3324c" fill-rule="evenodd" d="M48 24c0 13.283-10.762 24.045-24 24.045C10.717 48.045 0 37.283 0 24 0 10.762 10.717 0 24 0c13.238 0 24 10.762 24 24z" clip-rule="evenodd"/><path fill="#fff" d="M26.5 25.5a.5.5 0 0 1-.5-.5v-2.5h-1.5c-.827 0-1.5-.673-1.5-1.5v-8c0-.827.673-1.5 1.5-1.5H26a.5.5 0 0 1 0 1h-1.5a.5.5 0 0 0-.5.5v8a.5.5 0 0 0 .5.5h2a.5.5 0 0 1 .5.5v1.793l2.146-2.146a.5.5 0 0 1 .354-.147h8a.5.5 0 0 0 .5-.5v-8a.5.5 0 0 0-.5-.5H36a.5.5 0 0 1 0-1h1.5c.827 0 1.5.673 1.5 1.5v8c0 .827-.673 1.5-1.5 1.5h-7.793l-2.854 2.854a.5.5 0 0 1-.353.146z"/><path fill="#fff" d="M32.5 19.5h-3a.5.5 0 0 1-.5-.5v-2.048a3.956 3.956 0 0 1-2-3.452c0-2.206 1.794-4 4-4s4 1.794 4 4a3.956 3.956 0 0 1-2 3.452V19a.5.5 0 0 1-.5.5zm-2.5-1h2v-1.85a.5.5 0 0 1 .285-.451A2.973 2.973 0 0 0 34 13.5c0-1.654-1.346-3-3-3s-3 1.346-3 3c0 1.16.657 2.194 1.715 2.699a.5.5 0 0 1 .285.451v1.85z"/><path fill="#fff" d="M30 20.625a.5.5 0 0 1-.5-.5v-1a.5.5 0 0 1 1 0v1a.5.5 0 0 1-.5.5zM32 20.625a.5.5 0 0 1-.5-.5v-1a.5.5 0 0 1 1 0v1a.5.5 0 0 1-.5.5zM32 15.125h-2a.5.5 0 0 1 0-1h2a.5.5 0 0 1 0 1z"/><path fill="#fff" d="M31 19.5a.5.5 0 0 1-.5-.5v-4a.5.5 0 0 1 1 0v4a.5.5 0 0 1-.5.5zM17 32.782a5.247 5.247 0 0 1-3.587-1.413.5.5 0 0 1 .682-.732c1.582 1.474 4.219 1.477 5.803.008a.5.5 0 1 1 .68.734A5.249 5.249 0 0 1 17 32.782z"/><path fill="#fff" d="M9.5 38.5A.5.5 0 0 1 9 38v-2.868c0-1.119.567-2.141 1.517-2.733l4.175-2.602a.5.5 0 0 1 .529.849l-4.175 2.602A2.205 2.205 0 0 0 10 35.132V38a.5.5 0 0 1-.5.5z"/><path fill="#fff" d="M14.458 28.174h1v2.046h-1zM24.5 38.5a.5.5 0 0 1-.5-.5v-2.867c0-.772-.392-1.477-1.047-1.885l-4.179-2.603a.498.498 0 0 1-.236-.424v-2.046a.5.5 0 0 1 1 0v1.769l3.943 2.456A3.199 3.199 0 0 1 25 35.133V38a.5.5 0 0 1-.5.5zM12.579 38.5a.5.5 0 0 1-.5-.5v-1.585c0-.425-.158-.831-.444-1.145l-.458-.502a.499.499 0 1 1 .738-.674l.458.502a2.69 2.69 0 0 1 .706 1.819V38a.5.5 0 0 1-.5.5z"/><path fill="#fff" d="M21.421 38.5a.5.5 0 0 1-.5-.5v-1.585c0-.675.25-1.321.706-1.819l.458-.502a.499.499 0 1 1 .738.674l-.458.502c-.286.314-.444.72-.444 1.145V38a.5.5 0 0 1-.5.5zM17 29.328a3.905 3.905 0 0 1-3.901-3.901v-.987a.5.5 0 0 1 1 0v.987c0 1.6 1.301 2.901 2.901 2.901s2.901-1.302 2.901-2.901v-1.541a.5.5 0 0 1 1 0v1.541A3.905 3.905 0 0 1 17 29.328zM18.781 23.454a6.406 6.406 0 0 1-3.789-1.228.5.5 0 1 1 .587-.809 5.413 5.413 0 0 0 3.202 1.037.5.5 0 0 1 0 1z"/><path fill="#fff" d="M13.599 25.269a.5.5 0 0 1-.5-.5 3.161 3.161 0 0 1 2.46-3.095.5.5 0 1 1 .225.975 2.165 2.165 0 0 0-1.685 2.12.5.5 0 0 1-.5.5z"/><path fill="#fff" d="M20.429 25.103a.5.5 0 0 1-.5-.5 1.15 1.15 0 0 0-1.148-1.148.5.5 0 0 1 0-1c.634 0 1.205.276 1.598.714a3.323 3.323 0 0 0-3.301-3.671 3.323 3.323 0 0 0-3.052 4.626.5.5 0 1 1-.919.393 4.325 4.325 0 0 1 3.971-6.019 4.325 4.325 0 0 1 3.927 6.12l-.152.25a.5.5 0 0 1-.424.235z"/><path fill="#fff" d="M15.755 19.738a.499.499 0 0 1-.327-.122c-.405-.351-.628-.812-.628-1.298 0-1.026.987-1.86 2.201-1.86s2.201.834 2.201 1.86c0 .458-.203.899-.571 1.244a.497.497 0 0 1-.5.109 3.287 3.287 0 0 0-2.201.036.513.513 0 0 1-.175.031zM17 17.457c-.651 0-1.201.394-1.201.86a.63.63 0 0 0 .107.345 4.28 4.28 0 0 1 2.207-.037.607.607 0 0 0 .087-.308c.001-.466-.549-.86-1.2-.86z"/></svg>