<svg xmlns="http://www.w3.org/2000/svg" id="Layer_1" viewBox="0 0 48 48"><path fill="#e3324c" fill-rule="evenodd" d="M48 23.977C48 37.248 37.248 48 23.977 48 10.752 48 0 37.248 0 23.977 0 10.752 10.752 0 23.977 0 37.248 0 48 10.752 48 23.977z" clip-rule="evenodd"/><path fill="#fff" d="M39.5 36h-31a.5.5 0 0 1-.5-.5v-23a.5.5 0 0 1 .5-.5h31a.5.5 0 0 1 .5.5v23a.5.5 0 0 1-.5.5zM9 35h30V13H9v22z"/><path fill="#fff" d="M35.5 34h-23a.5.5 0 0 1-.5-.5c0-.827-.673-1.5-1.5-1.5a.5.5 0 0 1-.5-.5v-15a.5.5 0 0 1 .5-.5c.827 0 1.5-.673 1.5-1.5a.5.5 0 0 1 .5-.5h23a.5.5 0 0 1 .5.5c0 .827.673 1.5 1.5 1.5a.5.5 0 0 1 .5.5v15a.5.5 0 0 1-.5.5c-.827 0-1.5.673-1.5 1.5a.5.5 0 0 1-.5.5zm-22.55-1h22.1c.2-.979.972-1.75 1.95-1.95v-14.1A2.508 2.508 0 0 1 35.05 15h-22.1A2.51 2.51 0 0 1 11 16.95v14.1c.979.2 1.75.971 1.95 1.95z"/><path fill="#fff" d="M29 21H19a.5.5 0 0 1-.5-.5v-3a.5.5 0 0 1 .5-.5h10a.5.5 0 0 1 .5.5v3a.5.5 0 0 1-.5.5zm-9.5-1h9v-2h-9v2zM31 24H17a.5.5 0 0 1 0-1h14a.5.5 0 0 1 0 1zM34.5 26h-21a.5.5 0 0 1 0-1h21a.5.5 0 0 1 0 1zM34.5 28h-21a.5.5 0 0 1 0-1h21a.5.5 0 0 1 0 1zM19.5 32h-6a.5.5 0 0 1 0-1h6a.5.5 0 0 1 0 1zM32.5 32a.5.5 0 0 1-.5-.5.5.5 0 0 0-1 0 .5.5 0 0 1-1 0c0-.827.673-1.5 1.5-1.5s1.5.673 1.5 1.5a.5.5 0 0 1-.5.5z"/><path fill="#fff" d="M34.5 32a.5.5 0 0 1-.5-.5.5.5 0 0 0-1 0 .5.5 0 0 1-1 0c0-.827.673-1.5 1.5-1.5s1.5.673 1.5 1.5a.5.5 0 0 1-.5.5zM30.5 32a.5.5 0 0 1-.5-.5 1 1 0 0 0-2 0 .5.5 0 0 1-1 0c0-1.103.897-2 2-2s2 .897 2 2a.5.5 0 0 1-.5.5z"/></svg>