<svg xmlns="http://www.w3.org/2000/svg" id="Layer_1" viewBox="0 0 48 48"><path fill="#e3324c" fill-rule="evenodd" d="M48 24c0 13.283-10.762 24.045-24 24.045C10.717 48.045 0 37.283 0 24 0 10.762 10.717 0 24 0c13.238 0 24 10.762 24 24z" clip-rule="evenodd"/><path fill="#fff" d="M19.987 20.944a2.09 2.09 0 0 1-2.087-2.087v-.882h1v.882a1.088 1.088 0 0 0 2.174 0v-.882h1v.882a2.09 2.09 0 0 1-2.087 2.087z"/><path fill="#fff" d="M21.654 18.567h-3.341a.5.5 0 0 1-.482-.368l-.286-1.046a1.126 1.126 0 0 1 .654-1.295 1.243 1.243 0 0 1 1.394-.843l1.81.302c.337.056.632.241.829.521s.271.62.21.956l-.297 1.379a.505.505 0 0 1-.491.394zm-2.96-1h2.556l.209-.968a.255.255 0 0 0-.048-.186.267.267 0 0 0-.174-.11l-1.81-.302a.247.247 0 0 0-.205.057.247.247 0 0 0-.089.192c0 .276-.224.52-.5.52a.115.115 0 0 0-.094.045.116.116 0 0 0-.024.101l.179.651zM16.495 25a.5.5 0 0 1-.5-.5v-1.45c0-.734.461-1.4 1.148-1.658l1.392-.522v-.75a.5.5 0 0 1 .801-.399c.387.292.914.292 1.302-.001a.5.5 0 0 1 .801.399v1.099a.5.5 0 0 1-1 0v-.324a2.033 2.033 0 0 1-.905 0v.323a.5.5 0 0 1-.324.468l-1.716.644a.774.774 0 0 0-.5.721v1.45a.499.499 0 0 1-.499.5z"/><path fill="#fff" d="M23.495 25a.5.5 0 0 1-.5-.5v-1.45a.774.774 0 0 0-.5-.721l-1.716-.644a.5.5 0 0 1 .352-.936l1.716.644a1.779 1.779 0 0 1 1.148 1.658v1.45a.5.5 0 0 1-.5.499z"/><path fill="#fff" d="M19.988 22.987a2.727 2.727 0 0 1-2.23-1.16.499.499 0 1 1 .818-.574c.645.919 2.176.92 2.821.001a.501.501 0 0 1 .819.575 2.726 2.726 0 0 1-2.228 1.158z"/><path fill="#fff" d="M35.5 40h-23a.5.5 0 0 1-.5-.5v-28a.5.5 0 0 1 .5-.5h7a.5.5 0 0 1 0 1H13v27h22V12h-6.5a.5.5 0 0 1 0-1h7a.5.5 0 0 1 .5.5v28a.5.5 0 0 1-.5.5z"/><path fill="#fff" d="M33.5 38h-19a.5.5 0 0 1-.5-.5v-24a.5.5 0 0 1 .5-.5h3a.5.5 0 0 1 0 1H15v23h18V14h-2.5a.5.5 0 0 1 0-1h3a.5.5 0 0 1 .5.5v24a.5.5 0 0 1-.5.5z"/><path fill="#fff" d="M28.5 14h-9a.5.5 0 0 1-.5-.5v-3a.5.5 0 0 1 .5-.5H22c0-1.103.897-2 2-2s2 .897 2 2h2.5a.5.5 0 0 1 .5.5v3a.5.5 0 0 1-.5.5zM20 13h8v-2h-2.592a.501.501 0 0 1-.471-.667c.042-.12.063-.229.063-.333 0-.551-.449-1-1-1s-1 .449-1 1c0 .104.021.213.063.333a.501.501 0 0 1-.471.667H20v2zM31.5 19h-6a.5.5 0 0 1-.5-.5v-2a.5.5 0 0 1 .5-.5h6a.5.5 0 0 1 .5.5v2a.5.5 0 0 1-.5.5zM26 18h5v-1h-5v1zM22.5 36h-6a.5.5 0 0 1-.5-.5v-5a.5.5 0 0 1 1 0V35h5.5a.5.5 0 0 1 0 1zM31.5 27h-15a.5.5 0 0 1 0-1h15a.5.5 0 0 1 0 1zM20.5 29h-4a.5.5 0 0 1 0-1h4a.5.5 0 0 1 0 1zM27.5 29h-2a.5.5 0 0 1 0-1h2a.5.5 0 0 1 0 1zM31.5 21h-3a.5.5 0 0 1 0-1h3a.5.5 0 0 1 0 1zM26.5 21h-1a.5.5 0 0 1 0-1h1a.5.5 0 0 1 0 1zM31.5 23h-6a.5.5 0 0 1 0-1h6a.5.5 0 0 1 0 1zM29.5 25h-4a.5.5 0 0 1 0-1h4a.5.5 0 0 1 0 1z"/><path fill="#fff" d="M16.5 35.009a.5.5 0 0 1-.354-.853l2.5-2.5a.5.5 0 0 1 .707 0l.65.65 1.667-1.668a.5.5 0 0 1 .707.707l-2.021 2.021a.514.514 0 0 1-.707 0l-.649-.65-2.146 2.146a.5.5 0 0 1-.354.147z"/><path fill="#fff" d="M22.5 32.5a.5.5 0 0 1-.5-.5v-1h-1a.5.5 0 0 1 0-1h1.5a.5.5 0 0 1 .5.5V32a.5.5 0 0 1-.5.5zM28 36c-1.654 0-3-1.346-3-3s1.346-3 3-3a.5.5 0 0 1 .5.5v2h2a.5.5 0 0 1 .5.5c0 1.654-1.346 3-3 3zm-.5-4.937A2.003 2.003 0 0 0 26 33c0 1.103.897 2 2 2 .93 0 1.714-.639 1.937-1.5H28a.5.5 0 0 1-.5-.5v-1.937z"/><path fill="#fff" d="M29.5 31.923a.497.497 0 0 1-.498-.542l.194-2.302a.5.5 0 0 1 .54-.456 2.809 2.809 0 0 1 2.306 1.603.501.501 0 0 1-.239.665l-2.09.983a.488.488 0 0 1-.213.049zm.644-2.192l-.073.87.79-.372a1.909 1.909 0 0 0-.328-.293 1.902 1.902 0 0 0-.389-.205z"/></svg>