<svg xmlns="http://www.w3.org/2000/svg" id="Layer_1" viewBox="0 0 48 48"><path fill="#e3324c" fill-rule="evenodd" d="M48 24c0 13.283-10.762 24.045-24 24.045C10.717 48.045 0 37.283 0 24 0 10.762 10.717 0 24 0c13.238 0 24 10.762 24 24z" clip-rule="evenodd"/><path fill="#fff" d="M15.003 25.651a3.61 3.61 0 0 1-3.606-3.606v-1.726h1v1.726c0 1.438 1.169 2.606 2.606 2.606s2.606-1.169 2.606-2.606v-1.726h1v1.726a3.61 3.61 0 0 1-3.606 3.606z"/><path fill="#fff" d="M12.719 24.69h1v1.405h-1zM16.287 24.69h1v1.405h-1zM18.111 21.225a.502.502 0 0 1-.39-.187l-.968-1.201a.502.502 0 0 1-.11-.313v-.214h-3.282v.214a.5.5 0 0 1-.11.313l-.964 1.201a.499.499 0 1 1-.872-.18l-.532-1.946a1.664 1.664 0 0 1 .325-1.414c.218-.269.508-.458.832-.55a1.89 1.89 0 0 1 2.165-1.475l3.366.561c.513.085.96.367 1.259.792.3.426.413.942.32 1.455l-.55 2.549a.5.5 0 0 1-.489.395zm-4.218-4.78a.9.9 0 0 0-.898.9c0 .276-.224.538-.5.538a.654.654 0 0 0-.64.791l.267.974.24-.3v-.538a.5.5 0 0 1 .5-.5h4.282a.5.5 0 0 1 .5.5v.537l.2.248.326-1.511a.926.926 0 0 0-.762-1.066l-3.366-.561a1.107 1.107 0 0 0-.149-.012zM8.5 33.473a.5.5 0 0 1-.5-.5v-2.642c0-.891.475-1.729 1.238-2.188l2.424-1.454a.5.5 0 1 1 .514.858l-2.423 1.454A1.561 1.561 0 0 0 9 30.331v2.642a.5.5 0 0 1-.5.5zM21.5 33.473a.5.5 0 0 1-.5-.5v-2.642a1.56 1.56 0 0 0-.754-1.33l-2.422-1.454a.5.5 0 0 1 .514-.858l2.423 1.454A2.567 2.567 0 0 1 22 30.331v2.642a.5.5 0 0 1-.5.5z"/><path fill="#fff" d="M11.099 33.473a.5.5 0 0 1-.5-.5v-.845c0-.388-.145-.759-.406-1.045l-.428-.47a.499.499 0 1 1 .738-.674l.428.469a2.54 2.54 0 0 1 .668 1.72v.845a.5.5 0 0 1-.5.5zM18.901 33.473a.5.5 0 0 1-.5-.5v-.845c0-.639.237-1.249.668-1.721l.428-.468a.5.5 0 1 1 .738.674l-.428.469a1.547 1.547 0 0 0-.406 1.046v.845a.5.5 0 0 1-.5.5zM13.295 29.328l-.027-.001a.496.496 0 0 1-.363-.187l-1.367-1.71a.501.501 0 0 1 .019-.647l.923-1.025a.5.5 0 0 1 .587-.116l2.154 1.025a.5.5 0 0 1 .138.804l-1.71 1.71a.502.502 0 0 1-.354.147zm-.712-2.19l.754.941.813-.813-1.178-.561-.389.433z"/><path fill="#fff" d="M16.714 29.328a.505.505 0 0 1-.354-.146l-1.709-1.71a.501.501 0 0 1 .138-.804l2.153-1.025a.5.5 0 0 1 .587.116l.923 1.025a.502.502 0 0 1 .019.647l-1.367 1.71a.502.502 0 0 1-.363.187h-.027zm-.856-2.062l.814.813.753-.941-.39-.433-1.177.561z"/><path fill="#fff" d="M14.995 33.473a.5.5 0 0 1-.5-.5v-5.877a.5.5 0 0 1 1 0v5.877a.5.5 0 0 1-.5.5zM33.001 28.809a4.617 4.617 0 0 1-3.155-1.242.5.5 0 0 1 .682-.732c1.348 1.256 3.591 1.256 4.938.008a.499.499 0 1 1 .68.732 4.615 4.615 0 0 1-3.145 1.234z"/><path fill="#fff" d="M26.5 33.473a.5.5 0 0 1-.5-.5V30.78c0-.993.503-1.9 1.346-2.426l3.619-2.256a.5.5 0 0 1 .529.849l-3.619 2.255A1.846 1.846 0 0 0 27 30.779v2.193a.5.5 0 0 1-.5.501z"/><path fill="#fff" d="M30.729 24.749h1v1.773h-1zM39.5 33.473a.5.5 0 0 1-.5-.5V30.78c0-.646-.327-1.236-.876-1.577l-3.622-2.255a.502.502 0 0 1-.235-.425V24.75a.5.5 0 0 1 1 0v1.496l3.387 2.107A2.843 2.843 0 0 1 40 30.779v2.193a.5.5 0 0 1-.5.501zM29.168 33.473a.5.5 0 0 1-.5-.5v-1.082c0-.352-.131-.688-.367-.947l-.397-.434a.5.5 0 0 1 .738-.676l.397.435c.405.444.629 1.021.629 1.622v1.082a.5.5 0 0 1-.5.5z"/><path fill="#fff" d="M36.832 33.473a.5.5 0 0 1-.5-.5v-1.082c0-.602.224-1.178.629-1.621l.396-.435a.499.499 0 1 1 .738.674l-.396.435c-.236.26-.367.596-.367.947v1.082a.5.5 0 0 1-.5.5zM33 25.814a3.452 3.452 0 0 1-3.447-3.447v-.855a.5.5 0 0 1 1 0v.855c0 1.35 1.098 2.447 2.447 2.447s2.447-1.098 2.447-2.447v-1.335a.5.5 0 0 1 1 0v1.335A3.451 3.451 0 0 1 33 25.814z"/><path fill="#fff" d="M34.543 20.725a5.625 5.625 0 0 1-3.322-1.076.5.5 0 1 1 .586-.81c.801.58 1.746.887 2.736.887a.5.5 0 0 1 0 .999z"/><path fill="#fff" d="M30.053 22.297a.5.5 0 0 1-.5-.5c0-1.321.897-2.45 2.184-2.747a.5.5 0 1 1 .225.975 1.81 1.81 0 0 0-1.408 1.772.502.502 0 0 1-.501.5z"/><path fill="#fff" d="M35.972 22.153a.5.5 0 0 1-.5-.5.93.93 0 0 0-.929-.929.5.5 0 0 1 0-1c.515 0 .983.203 1.33.533a2.814 2.814 0 0 0-2.806-2.962 2.814 2.814 0 0 0-2.584 3.915.499.499 0 1 1-.918.394 3.814 3.814 0 0 1 3.502-5.31 3.814 3.814 0 0 1 3.464 5.398l-.136.226a.498.498 0 0 1-.423.235z"/><path fill="#fff" d="M31.921 17.504a.505.505 0 0 1-.327-.121c-.366-.316-.567-.734-.567-1.177 0-.926.886-1.679 1.974-1.679s1.974.753 1.974 1.679c0 .415-.183.814-.516 1.126a.506.506 0 0 1-.5.11 2.788 2.788 0 0 0-1.864.03.482.482 0 0 1-.174.032zM33 15.527c-.527 0-.974.311-.974.679 0 .083.023.157.058.222a3.76 3.76 0 0 1 1.846-.032.453.453 0 0 0 .044-.189c0-.369-.447-.68-.974-.68zM21.5 21.973a.5.5 0 0 1-.5-.5c0-1.103.897-2 2-2h3.5a.5.5 0 0 1 0 1H23a1 1 0 0 0-1 1 .5.5 0 0 1-.5.5z"/><path fill="#fff" d="M25.5 21.473a.5.5 0 0 1-.354-.853l.646-.646-.646-.646a.5.5 0 0 1 .707-.707l1 1a.5.5 0 0 1 0 .707l-1 1a.501.501 0 0 1-.353.145zM25 24.473h-3.5a.5.5 0 0 1 0-1H25a1 1 0 0 0 1-1 .5.5 0 0 1 1 0c0 1.102-.897 2-2 2z"/><path fill="#fff" d="M22.5 25.473a.502.502 0 0 1-.354-.146l-1-1a.5.5 0 0 1 0-.707l1-1a.5.5 0 0 1 .707.707l-.646.646.646.646a.5.5 0 0 1-.353.854z"/></svg>