<svg xmlns="http://www.w3.org/2000/svg" id="Layer_1" viewBox="0 0 48 48"><path fill="#e3324c" fill-rule="evenodd" d="M48 24c0 13.283-10.762 24.045-24 24.045C10.717 48.045 0 37.283 0 24 0 10.762 10.717 0 24 0c13.238 0 24 10.762 24 24z" clip-rule="evenodd"/><path fill="#fff" d="M15.005 39.847a.5.5 0 0 1-.354-.853l5.657-5.657-5.657-5.657-5.657 5.657a.5.5 0 0 1-.707-.707l6.01-6.011a.514.514 0 0 1 .707 0l6.364 6.364a.5.5 0 0 1 0 .707l-6.01 6.011a.5.5 0 0 1-.353.146z"/><path fill="#fff" d="M14.866 39.984a.5.5 0 0 1-.354-.853l2.967-2.967-5.657-5.656-2.966 2.967a.5.5 0 0 1-.707-.707l3.32-3.32a.5.5 0 0 1 .707 0l6.364 6.363a.5.5 0 0 1 0 .708l-3.32 3.32a.501.501 0 0 1-.354.145zM15.712 27.826a.5.5 0 0 1-.354-.853l1.061-1.062a.5.5 0 0 1 .707.707l-1.061 1.062a.498.498 0 0 1-.353.146z"/><ellipse cx="18.187" cy="33.336" fill="#fff" rx=".5" ry=".5" transform="rotate(-45.001 18.186 33.336)"/><path fill="#fff" d="M20.308 33.129a.502.502 0 0 1-.354-.146l-4.95-4.949a.5.5 0 0 1 0-.707l1.415-1.415a.5.5 0 0 1 .707.707l-1.061 1.062 4.243 4.242 1.061-1.061a.504.504 0 0 1 .708 0 .51.51 0 0 0 .707 0l.707-.707a.5.5 0 0 1 .707.707l-.707.707a1.539 1.539 0 0 1-1.708.294l-1.121 1.12a.502.502 0 0 1-.354.146z"/><path fill="#fff" d="M16.442 27.095a.5.5 0 0 1-.354-.853l.465-.465-.609-1.828a.5.5 0 0 1 .121-.512l3.071-3.071a.5.5 0 0 1 .707.707l-2.853 2.853.609 1.828a.5.5 0 0 1-.121.512l-.684.684a.497.497 0 0 1-.352.145zM28.49 15.79h-9a.5.5 0 0 1-.5-.5v-6.5a.5.5 0 0 1 1 0v6h8v-6a.5.5 0 0 1 1 0v6.5a.5.5 0 0 1-.5.5z"/><path fill="#fff" d="M28.49 11.79h-9a.5.5 0 0 1-.5-.5V8.495a.5.5 0 0 1 1 0v2.295h8V8.495a.5.5 0 0 1 1 0v2.795a.5.5 0 0 1-.5.5zM27.49 17.79a.5.5 0 0 1-.5-.5v-1.5a.5.5 0 0 1 1 0v1.5a.5.5 0 0 1-.5.5z"/><circle cx="21.49" cy="13.29" r=".5" fill="#fff"/><path fill="#fff" d="M19.49 24.29a.5.5 0 0 1-.5-.5v-5.5c0-.652.418-1.208 1-1.414V15.29a.5.5 0 0 1 .5-.5h7a.5.5 0 0 1 .5.5v2a.5.5 0 0 1-1 0v-1.5h-6v1.5a.5.5 0 0 1-.5.5.5.5 0 0 0-.5.5v5.5a.5.5 0 0 1-.5.5z"/><path fill="#fff" d="M29.49 22.04a.5.5 0 0 1-.5-.5v-2.441l-1.724-.861a.5.5 0 0 1-.276-.447v-.967a.5.5 0 0 1 1 0v.658l1.724.861a.5.5 0 0 1 .276.447v2.75a.5.5 0 0 1-.5.5zM32.975 39.847a.502.502 0 0 1-.354-.146l-6.01-6.011a.5.5 0 0 1 0-.707l6.364-6.364a.514.514 0 0 1 .707 0l6.01 6.011a.5.5 0 0 1-.707.707l-5.657-5.657-5.657 5.657 5.657 5.657a.5.5 0 0 1-.353.853z"/><path fill="#fff" d="M33.134 40.005a.502.502 0 0 1-.354-.146l-3.34-3.341a.5.5 0 0 1 0-.708l6.364-6.363a.5.5 0 0 1 .707 0l3.34 3.34a.5.5 0 0 1-.707.707l-2.986-2.986-5.658 5.656 2.987 2.987a.5.5 0 0 1-.353.854zM32.268 27.826a.502.502 0 0 1-.354-.146l-1.061-1.062a.5.5 0 0 1 .707-.707l1.061 1.062a.5.5 0 0 1-.353.853z"/><ellipse cx="29.793" cy="33.336" fill="#fff" rx=".5" ry=".5" transform="rotate(-45.001 29.793 33.337)"/><path fill="#fff" d="M28.733 24.29a.502.502 0 0 1-.354-.146l-3.889-3.889a.5.5 0 0 0-.707.707l1.414 1.414a.5.5 0 0 1-.707.707l-1.414-1.414a1.501 1.501 0 0 1 0-2.121 1.503 1.503 0 0 1 2.121 0l3.889 3.889a.5.5 0 0 1-.353.853z"/><path fill="#fff" d="M23.429 24.644a.502.502 0 0 1-.354-.146l-1.415-1.414a1.503 1.503 0 0 1 0-2.121 1.502 1.502 0 0 1 2.122 0l1.414 1.414a.5.5 0 0 1-.707.707l-1.414-1.414a.502.502 0 0 0-.708 0 .502.502 0 0 0 0 .707l1.414 1.414a.5.5 0 0 1-.352.853z"/><path fill="#fff" d="M22.015 26.058a.502.502 0 0 1-.354-.146l-1.414-1.414a1.501 1.501 0 0 1 0-2.121c.567-.566 1.556-.566 2.122 0l1.414 1.414a.5.5 0 0 1-.707.707l-1.415-1.414a.513.513 0 0 0-.707 0 .5.5 0 0 0 0 .707l1.414 1.414a.5.5 0 0 1-.353.853z"/><path fill="#fff" d="M27.672 33.129a.502.502 0 0 1-.354-.146l-1.121-1.12c-.55.261-1.263.15-1.708-.294l-5.657-5.657a1.501 1.501 0 0 1 0-2.121 1.503 1.503 0 0 1 2.121 0l1.414 1.414a.5.5 0 0 1-.707.707l-1.414-1.414a.5.5 0 0 0-.707.707l5.657 5.657c.19.189.519.189.707 0a.516.516 0 0 1 .708 0l1.061 1.061 4.243-4.242-1.061-1.062a.5.5 0 0 1 .707-.707l1.415 1.415a.5.5 0 0 1 0 .707l-4.95 4.949a.502.502 0 0 1-.354.146z"/><path fill="#fff" d="M31.538 27.095a.502.502 0 0 1-.354-.146l-.684-.684a.5.5 0 0 1-.121-.512l.609-1.828-2.972-2.971a1.234 1.234 0 0 0 .148 1.562l1.224 1.224a.5.5 0 0 1-.707.707l-1.224-1.224a2.232 2.232 0 0 1 0-3.154l.19-.19a.5.5 0 0 1 .707 0l3.559 3.559a.5.5 0 0 1 .121.512l-.609 1.828.465.465a.5.5 0 0 1-.352.852z"/></svg>