<svg xmlns="http://www.w3.org/2000/svg" id="Layer_1" viewBox="0 0 48 48"><path fill="#e3324c" fill-rule="evenodd" d="M48 24c0 13.283-10.762 24.045-24 24.045C10.717 48.045 0 37.283 0 24 0 10.762 10.717 0 24 0c13.238 0 24 10.762 24 24z" clip-rule="evenodd"/><path fill="#fff" d="M17.998 25.314a5.05 5.05 0 0 1-5.044-5.043v-2.524h1v2.524c0 2.229 1.814 4.043 4.044 4.043s4.043-1.814 4.043-4.043v-2.524h1v2.524a5.05 5.05 0 0 1-5.043 5.043z"/><path fill="#fff" d="M21.107 26.195h-1v-1.209a5.264 5.264 0 0 1-4.22 0v1.209h-1v-2.991l.778.521c1.385.927 3.278.927 4.663 0l.778-.521v2.991zM22.544 18.839a.502.502 0 0 1-.39-.187l-1.415-1.756a.502.502 0 0 1-.11-.313v-.433h-5.263v.432a.502.502 0 0 1-.11.313l-1.41 1.756a.5.5 0 0 1-.872-.181l-.779-2.846A2.193 2.193 0 0 1 13.865 13a2.534 2.534 0 0 1 2.928-2.115l4.923.82a2.571 2.571 0 0 1 1.691 1.063c.401.571.555 1.264.43 1.952l-.805 3.724a.5.5 0 0 1-.488.395zm-6.171-6.989c-.362 0-.716.127-.997.366a1.54 1.54 0 0 0-.547 1.18c0 .276-.224.555-.5.555-.36 0-.697.161-.924.441-.228.28-.314.644-.239.997l.514 1.874.687-.855v-.758a.5.5 0 0 1 .5-.5h6.263a.5.5 0 0 1 .5.5v.756l.647.803.58-2.684a1.57 1.57 0 0 0-.268-1.182 1.572 1.572 0 0 0-1.037-.652l-4.923-.82a1.579 1.579 0 0 0-.256-.021zM8.5 37.15a.5.5 0 0 1-.5-.5v-4.261c0-1.222.651-2.372 1.699-3.001l3.544-2.126a.5.5 0 1 1 .514.857l-3.544 2.126A2.515 2.515 0 0 0 9 32.389v4.261a.5.5 0 0 1-.5.5zM27.5 37.15a.5.5 0 0 1-.5-.5v-4.261c0-.873-.465-1.694-1.213-2.144l-3.544-2.126a.5.5 0 1 1 .514-.857l3.544 2.126A3.518 3.518 0 0 1 28 32.389v4.261a.5.5 0 0 1-.5.5z"/><path fill="#fff" d="M12.5 37.15a.5.5 0 0 1-.5-.5v-1.633c0-.625-.232-1.224-.654-1.686l-.625-.685a.499.499 0 1 1 .738-.674l.625.685c.591.647.916 1.485.916 2.36v1.633a.5.5 0 0 1-.5.5zM23.5 37.15a.5.5 0 0 1-.5-.5v-1.633c0-.875.325-1.713.916-2.36l.625-.684a.499.499 0 1 1 .738.674l-.625.685A2.492 2.492 0 0 0 24 35.017v1.633a.5.5 0 0 1-.5.5zM15.5 30.691l-.027-.001a.5.5 0 0 1-.363-.187l-2-2.5a.501.501 0 0 1 .019-.647l1.35-1.5a.501.501 0 0 1 .587-.117l3.15 1.5a.497.497 0 0 1 .138.805l-2.5 2.5a.498.498 0 0 1-.354.147zm-1.345-2.981l1.386 1.732 1.604-1.604-2.174-1.035-.816.907z"/><path fill="#fff" d="M20.5 30.691a.501.501 0 0 1-.354-.146l-2.5-2.5a.501.501 0 0 1 .138-.805l3.15-1.5a.501.501 0 0 1 .587.117l1.35 1.5a.502.502 0 0 1 .019.647l-2 2.5a.502.502 0 0 1-.363.187H20.5zm-1.646-2.853l1.604 1.604 1.386-1.732-.816-.907-2.174 1.035z"/><path fill="#fff" d="M19 30.691h-2a.5.5 0 0 1-.5-.5v-1.25a.5.5 0 0 1 1 0v.75h1v-.75a.5.5 0 0 1 1 0v1.25a.5.5 0 0 1-.5.5z"/><path fill="#fff" d="M19.499 37.15a.5.5 0 0 1-.493-.423l-.935-6.036h-.143l-.935 6.036a.499.499 0 1 1-.988-.154l1-6.459a.5.5 0 0 1 .494-.423h1a.5.5 0 0 1 .494.423l1 6.459a.501.501 0 0 1-.494.577zM38.5 28.15a.5.5 0 0 1-.5-.5v-12a.5.5 0 0 1 1 0v12a.5.5 0 0 1-.5.5zM37 34.15h-9.5a.5.5 0 0 1 0-1H37a.5.5 0 0 1 0 1z"/><path fill="#fff" d="M39.5 28.15h-17a.5.5 0 0 1 0-1h17a.5.5 0 0 1 0 1zM39.5 16.15h-16a.5.5 0 0 1 0-1h16a.5.5 0 0 1 0 1z"/><path fill="#fff" d="M37.499 37.15a.499.499 0 0 1-.496-.45l-1-10a.499.499 0 1 1 .994-.099l1 10a.499.499 0 0 1-.498.549z"/><path fill="#fff" d="M38.5 37.15h-2a.5.5 0 0 1 0-1h2a.5.5 0 0 1 0 1zM35 20.85a.5.5 0 0 1-.5-.5v-1.5H33a.5.5 0 0 1 0-1h2a.5.5 0 0 1 .5.5v2a.5.5 0 0 1-.5.5z"/><path fill="#fff" d="M25.062 24.85a.5.5 0 0 1-.307-.895l4.5-3.5a.501.501 0 0 1 .53-.053l1.672.836 3.119-3.236a.501.501 0 0 1 .721.694l-3.375 3.5a.5.5 0 0 1-.584.1l-1.718-.859-4.252 3.306a.488.488 0 0 1-.306.107z"/></svg>