<svg xmlns="http://www.w3.org/2000/svg" id="Layer_1" viewBox="0 0 48 48"><path fill="#e3324c" fill-rule="evenodd" d="M48 23.977C48 37.248 37.248 48 23.978 48 10.752 48 0 37.248 0 23.977 0 10.752 10.752 0 23.978 0 37.248 0 48 10.752 48 23.977z" clip-rule="evenodd"/><path fill="#fff" d="M36.5 27h-25a.5.5 0 0 1-.5-.5v-16a.5.5 0 0 1 .5-.5h25a.5.5 0 0 1 .5.5v16a.5.5 0 0 1-.5.5zM12 26h24V11H12v15zM34 34H14a.5.5 0 0 1 0-1h20a.5.5 0 0 1 0 1z"/><path fill="#fff" d="M37.5 27h-27a.5.5 0 0 1 0-1h27a.5.5 0 0 1 0 1zM37.5 11h-27a.5.5 0 0 1 0-1h27a.5.5 0 0 1 0 1z"/><path fill="#fff" d="M13.501 38c-.015 0-.028 0-.043-.002a.5.5 0 0 1-.456-.54l1-12a.5.5 0 0 1 .996.083l-1 12a.499.499 0 0 1-.497.459zM34.499 38a.499.499 0 0 1-.497-.458l-1-12a.5.5 0 0 1 .996-.083l1 12a.5.5 0 0 1-.456.54l-.043.001z"/><path fill="#fff" d="M14.5 38h-2a.5.5 0 0 1 0-1h2a.5.5 0 0 1 0 1zM35.5 38h-2a.5.5 0 0 1 0-1h2a.5.5 0 0 1 0 1zM30.5 17a.5.5 0 0 1-.5-.5V15h-1.5a.5.5 0 0 1 0-1h2a.5.5 0 0 1 .5.5v2a.5.5 0 0 1-.5.5z"/><path fill="#fff" d="M17.5 23a.5.5 0 0 1-.317-.888l5.5-4.5a.497.497 0 0 1 .616-.013l1.67 1.252 5.194-4.722a.5.5 0 0 1 .672.741l-5.5 5a.5.5 0 0 1-.636.03l-1.687-1.265-5.197 4.252A.491.491 0 0 1 17.5 23z"/></svg>